<svg width="31" height="26" viewBox="0 0 31 26" fill="none" xmlns="http://www.w3.org/2000/svg">
<path d="M29.0769 0.50003L2.15379 0.500092C1.09177 0.500092 0.230713 1.37342 0.230713 2.45058V20.0049C0.230713 21.0826 1.09177 21.9554 2.15379 21.9554H6.96147C7.57733 21.9554 7.92301 21.1533 7.92301 20.9807V20.9802C7.92301 20.8027 7.59608 19.9923 6.96147 19.9923H3.32686C2.68455 19.9923 2.1634 19.4637 2.1634 18.8122V3.67451C2.1634 3.02259 2.68407 2.49446 3.32686 2.49446L27.9143 2.46377C28.5566 2.46377 29.0778 2.99187 29.0778 3.64382V18.8117C29.0778 19.4632 28.5566 19.9918 27.9143 19.9918H15.7999L18.0831 17.8916C18.3639 17.619 18.4547 17.1782 18.174 16.9061L18.0096 16.6603C17.7278 16.3877 17.2735 16.3877 16.9927 16.6603L13.0947 20.2697C13.0889 20.2746 13.0836 20.2765 13.0788 20.2809L12.824 20.5277C12.6836 20.6627 12.6134 20.8426 12.6144 21.0221C12.6134 21.202 12.6831 21.381 12.824 21.5185L13.0788 21.7652C13.0836 21.7701 13.0899 21.7711 13.0947 21.7755L16.9327 25.2956C17.2134 25.5681 17.6678 25.5681 17.9495 25.2956L18.1139 25.0498C18.3947 24.7772 18.3038 24.3354 18.023 24.0633L15.7053 21.9553H29.0769C30.1389 21.9553 30.9999 21.0825 30.9999 20.0048V2.45048C30.9999 1.37333 30.1389 0.50003 29.0769 0.50003Z" fill="white"/>
</svg>
